<svg height="682pt" viewBox="-21 -171 682.66922 682" width="682pt" xmlns="http://www.w3.org/2000/svg"><path d="m512.371094 182.710938 127.246094-192.375h-195.144532l-3.644531 14.113281c-9.351563 36.242187-26.898437 85.359375-57.390625 113.550781-3.769531 3.480469-7.339844 6.28125-10.625 8.519531v-136.183593h-169.964844v37.625h15.878906v85.277343c-19.054687-16.757812-42.996093-48.734375-49.265624-106.132812l-1.828126-16.769531h-167.632812l5.757812 23.320312c20.695313 83.867188 51.746094 152.570312 92.292969 204.207031 33.101563 42.15625 72.523438 73.109375 117.171875 91.992188 39.875 16.863281 76.585938 21 103.003906 21 24.296876 0 39.878907-3.5 41.1875-3.804688l14.328126-3.339843.742187-51.6875 63.824219 55.523437h201.695312zm0 0"/></svg>